<?xml version="1.0" encoding="utf-8"?>
<!-- Generator: Adobe Illustrator 22.1.0, SVG Export Plug-In . SVG Version: 6.00 Build 0)  -->
<svg version="1.1" id="レイヤー_1" xmlns="http://www.w3.org/2000/svg" xmlns:xlink="http://www.w3.org/1999/xlink" x="0px"
	 y="0px" width="25px" height="25px" viewBox="0 0 25 25" style="enable-background:new 0 0 25 25;" xml:space="preserve">
<style type="text/css">
	.st0{fill:#DEB1CA;stroke:#83416A;stroke-width:0.5376;stroke-linecap:round;stroke-linejoin:round;stroke-miterlimit:10;}
	.st1{fill:#ECB7D1;stroke:#83416A;stroke-width:0.5376;stroke-linecap:round;stroke-linejoin:round;stroke-miterlimit:10;}
	.st2{fill:#D592B2;stroke:#83416A;stroke-width:0.5376;stroke-linecap:round;stroke-linejoin:round;stroke-miterlimit:10;}
</style>
<g>
	<g>
		<g>
			<path class="st0" d="M22.5,5.6l-1.8-0.5L20.9,4l-1.2,0.2l-0.5-1.8c0,0-2.6,0.3-4.2,2c-1.9,1.9-2.3,5.4-1.8,7.3
				c1.9,0.5,5.4,0.1,7.3-1.8C22.3,8.2,22.5,5.6,22.5,5.6z"/>
			<path class="st0" d="M2.6,19.1l1.8,0.5l-0.2,1.2l1.2-0.2l0.5,1.8c0,0,2.6-0.3,4.2-2c1.9-1.9,2.3-5.4,1.8-7.3
				c-1.9-0.5-5.4-0.1-7.3,1.8C2.8,16.5,2.6,19.1,2.6,19.1z"/>
			<path class="st0" d="M19.2,22.4l0.5-1.8l1.2,0.2l-0.2-1.2l1.8-0.5c0,0-0.3-2.6-2-4.2c-1.9-1.9-5.4-2.3-7.3-1.8
				c-0.5,1.9-0.1,5.4,1.8,7.3C16.6,22.2,19.2,22.4,19.2,22.4z"/>
			<path class="st0" d="M5.7,2.5L5.3,4.3L4.1,4.1l0.2,1.2L2.5,5.7c0,0,0.3,2.6,2,4.2c1.9,1.9,5.4,2.3,7.3,1.8
				c0.5-1.9,0.1-5.4-1.8-7.3C8.3,2.7,5.7,2.5,5.7,2.5z"/>
			<path class="st1" d="M14.8,0.7l-1.6,1l-0.7-1l-0.7,1l-1.6-1c0,0-1.6,2-1.6,4.4c0,2.7,2.2,5.5,3.9,6.4c1.7-0.9,3.9-3.7,3.9-6.4
				C16.4,2.7,14.8,0.7,14.8,0.7z"/>
			<path class="st1" d="M10.2,24.3l1.6-1l0.7,1l0.7-1l1.6,1c0,0,1.6-2,1.6-4.4c0-2.7-2.2-5.5-3.9-6.4c-1.7,0.9-3.9,3.7-3.9,6.4
				C8.6,22.3,10.2,24.3,10.2,24.3z"/>
			<path class="st1" d="M24.3,14.9l-1-1.6l1-0.7l-1-0.7l1-1.6c0,0-2-1.6-4.4-1.6c-2.7,0-5.5,2.2-6.4,3.9c0.9,1.7,3.7,3.9,6.4,3.9
				C22.3,16.5,24.3,14.9,24.3,14.9z"/>
			<path class="st1" d="M0.7,10.3l1,1.6l-1,0.7l1,0.7l-1,1.6c0,0,2,1.6,4.4,1.6c2.7,0,5.5-2.2,6.4-3.9c-0.9-1.7-3.7-3.9-6.4-3.9
				C2.7,8.7,0.7,10.3,0.7,10.3z"/>
		</g>
		<circle class="st2" cx="12.5" cy="12.5" r="3"/>
	</g>
</g>
</svg>
