<?xml version="1.0" encoding="utf-8"?>
<!-- Generator: Adobe Illustrator 22.1.0, SVG Export Plug-In . SVG Version: 6.00 Build 0)  -->
<svg version="1.1" id="レイヤー_1" xmlns="http://www.w3.org/2000/svg" xmlns:xlink="http://www.w3.org/1999/xlink" x="0px"
	 y="0px" width="180px" height="35px" viewBox="0 0 180 35" style="enable-background:new 0 0 180 35;" xml:space="preserve">
<style type="text/css">
	.st0{fill:#231815;}
</style>
<g>
	<path class="st0" d="M16,1v30.9l7,2.2V8.1c0-1.2,0.5-2,1.4-1.7c1.1,0.3,1.4,1.4,1.4,2.6v10.3c4.4,2.1,7.8,0,7.8-5.6
		c0-5.7-2-8.2-7.9-10.3C23.3,2.8,19,1.5,16,1"/>
	<path class="st0" d="M24.3,29.5l11.2-4c1.3-0.5,1.5-1.1,0.4-1.4c-1-0.3-2.9-0.2-4.2,0.2l-7.5,2.6v-4.2l0.4-0.1c0,0,2.2-0.8,5.2-1.1
		c3-0.3,6.8,0,9.7,1.2c3.3,1,3.7,2.6,2.8,3.6c-0.8,1.1-2.9,1.8-2.9,1.8l-15.3,5.5V29.5z"/>
	<path class="st0" d="M3.2,29.1c-3.4-1-3.9-2.9-2.4-4.1c1.4-1.1,3.8-1.9,3.8-1.9l10-3.6v4.1l-7.2,2.6C6.2,26.7,6,27.4,7,27.7
		c1,0.3,2.9,0.2,4.2-0.2l3.5-1.3v3.6c-0.2,0-0.5,0.1-0.7,0.1C10.5,30.5,6.8,30.3,3.2,29.1"/>
	<path class="st0" d="M38.9,32.4c0-0.4,0.1-0.7,0.4-1c0.3-0.3,0.6-0.4,1-0.4c0.4,0,0.7,0.1,1,0.4c0.3,0.3,0.4,0.6,0.4,1
		c0,0.8-0.6,1.4-1.4,1.4c-0.4,0-0.7-0.1-1-0.4C39.1,33.1,38.9,32.7,38.9,32.4 M40.3,34c0.4,0,0.9-0.2,1.2-0.5
		c0.3-0.3,0.5-0.7,0.5-1.2c0-0.4-0.2-0.8-0.5-1.2c-0.3-0.3-0.7-0.5-1.2-0.5c-0.9,0-1.6,0.7-1.6,1.6c0,0.4,0.2,0.9,0.5,1.2
		C39.4,33.8,39.8,34,40.3,34"/>
	<path class="st0" d="M40.7,31.9c0,0.1,0,0.2-0.1,0.2c-0.1,0-0.1,0.1-0.2,0.1h-0.5v-0.5h0.5c0.1,0,0.1,0,0.2,0
		C40.7,31.8,40.7,31.8,40.7,31.9 M41.1,33.1C41.1,33.1,41,33.1,41.1,33.1C41,33,41,33,41,32.9l0-0.2c0-0.1,0-0.2-0.1-0.2
		c0,0-0.1-0.1-0.1-0.1c0.1,0,0.1-0.1,0.1-0.1c0-0.1,0.1-0.2,0.1-0.3c0-0.2-0.1-0.4-0.3-0.4c-0.1,0-0.2-0.1-0.3-0.1h-0.8h0v0v1.7v0h0
		h0.2h0v0v-0.7h0.5c0.1,0,0.2,0,0.2,0c0.1,0,0.1,0.1,0.1,0.2l0,0.3c0,0.1,0,0.1,0,0.1c0,0,0,0,0,0.1l0,0h0h0.3h0L41.1,33.1
		L41.1,33.1L41.1,33.1L41.1,33.1"/>
	<path class="st0" d="M57.1,22.9V29c0,0.1,0.1,0.1,0.1,0.1h4c0.1,0,0.2-0.1,0.2-0.1v-6.1c0-1.8,0.9-3,2.2-3H74
		c3.3,0,5.3-2.1,5.3-5.6c0-3.4-2-5.6-5.3-5.6H57.3c-0.1,0-0.1,0.1-0.1,0.1v2.2c0,0.1,0.1,0.1,0.1,0.1h15.4c1.5,0,2.4,1.1,2.4,3.1
		c0,1.9-0.9,3.1-2.4,3.1h-11C59.1,17.4,57.1,19.8,57.1,22.9"/>
	<path class="st0" d="M93.6,11.3h7.8c0.1,0,0.1-0.1,0.1-0.1V8.9c0-0.1-0.1-0.1-0.1-0.1l-9.1,0c-3.3,0-5.3,2.1-5.3,5.6v9.3
		c0,1.9-0.9,3.1-2.4,3.1h-8.1c-0.1,0-0.1,0.1-0.1,0.1V29c0,0.1,0.1,0.2,0.1,0.2h9.4c3.3,0,5.3-2.1,5.3-5.6v-9.3
		C91.2,12.4,92.1,11.3,93.6,11.3"/>
	<path class="st0" d="M131.5,29c0,0.1,0.1,0.2,0.1,0.2h4c0.1,0,0.2-0.1,0.2-0.2V8.9c0-0.1-0.1-0.1-0.2-0.1h-4
		c-0.1,0-0.1,0.1-0.1,0.1V29z"/>
	<path class="st0" d="M119,26.9l9.6-18c0-0.1,0-0.2-0.1-0.2H126c-0.1,0-0.2,0.1-0.2,0.1l-7.7,14.4c-0.6,1.1-1.5,1.2-2.1,0.1
		l-7.8-14.5c0-0.1-0.1-0.1-0.2-0.1h-4.4c-0.1,0-0.1,0.1-0.1,0.2l9.6,18c0.5,1,1.2,1.7,1.9,2c1.1,0.5,2.4,0.1,3.4-1.1
		C118.6,27.6,118.8,27.3,119,26.9"/>
	<path class="st0" d="M158.5,8.8h-19.9c-0.1,0-0.2,0.1-0.2,0.1v2.2c0,0.1,0.1,0.1,0.2,0.1h7.5c0.1,0,0.3,0.1,0.3,0.3V29
		c0,0.1,0.1,0.1,0.1,0.1h4c0.1,0,0.1-0.1,0.1-0.1V11.6c0-0.1,0.1-0.3,0.3-0.3h7.5c0.1,0,0.1-0.1,0.1-0.1V8.9
		C158.6,8.9,158.6,8.8,158.5,8.8"/>
	<path class="st0" d="M180,29l-9.6-18c-0.5-1-1.2-1.7-1.9-2c-1.1-0.5-2.4-0.1-3.4,1.1c-0.2,0.3-0.4,0.5-0.6,0.9l-9.7,18
		c0,0.1,0,0.2,0.1,0.2h2.5c0.1,0,0.2-0.1,0.2-0.1l2.1-3.8l0,0c0.1-0.1,0.2-0.2,0.4-0.2h12.7c0.1,0,0.3,0.1,0.4,0.2l0,0l2.1,3.9
		c0,0.1,0.1,0.1,0.2,0.1h4.4C180,29.2,180,29.1,180,29 M171.4,22.5h-9.9c-0.2,0-0.2-0.1-0.2-0.3l0,0l4-7.5c0.6-1.1,1.5-1.2,2.1-0.1
		l4.1,7.7C171.7,22.4,171.6,22.5,171.4,22.5"/>
</g>
</svg>
